<svg width="68" height="33" viewBox="0 0 68 33" fill="none" xmlns="http://www.w3.org/2000/svg">
<rect y="0.5" width="68" height="32" rx="8" fill="#151515"/>
<path d="M20 4.5L23.5267 11.6459L31.4127 12.7918L25.7063 18.3541L27.0534 26.2082L20 22.5L12.9466 26.2082L14.2937 18.3541L8.58732 12.7918L16.4733 11.6459L20 4.5Z" fill="#FFC047"/>
<path d="M42.8 23.5V20.684H36.736V19.644L42.8 11.58H43.92V19.644H45.376V20.684H43.92V23.5H42.8ZM37.712 20.108L37.568 19.644H42.8V12.684L43.2 12.796L37.712 20.108ZM47.7261 23.5V21.74H49.0061V23.5H47.7261ZM51.9203 23.5L57.2963 12.7H51.3443V11.58H58.6243V12.7L53.2643 23.5H51.9203Z" fill="#FEFEFE"/>
</svg>
