<svg width="56" height="54" viewBox="0 0 56 54" fill="none" xmlns="http://www.w3.org/2000/svg">
<path d="M19.5 53.25L14.75 45.25L5.75 43.25L6.625 34L0.5 27L6.625 20L5.75 10.75L14.75 8.75L19.5 0.75L28 4.375L36.5 0.75L41.25 8.75L50.25 10.75L49.375 20L55.5 27L49.375 34L50.25 43.25L41.25 45.25L36.5 53.25L28 49.625L19.5 53.25ZM21.625 46.875L28 44.125L34.5 46.875L38 40.875L44.875 39.25L44.25 32.25L48.875 27L44.25 21.625L44.875 14.625L38 13.125L34.375 7.125L28 9.875L21.5 7.125L18 13.125L11.125 14.625L11.75 21.625L7.125 27L11.75 32.25L11.125 39.375L18 40.875L21.625 46.875ZM25.375 35.875L39.5 21.75L36 18.125L25.375 28.75L20 23.5L16.5 27L25.375 35.875Z" fill="#3A9A32"/>
</svg>
